<?xml version="1.0" encoding="UTF-8" standalone="no"?>
<!DOCTYPE svg PUBLIC "-//W3C//DTD SVG 1.1//EN" "http://www.w3.org/Graphics/SVG/1.1/DTD/svg11.dtd">
<svg xmlns="http://www.w3.org/2000/svg" xmlns:xlink="http://www.w3.org/1999/xlink" version="1.1" width="254pt" height="146pt" viewBox="0 0 254 146">
<g enable-background="new">
<g id="Layer-1" data-name="Layer 1">
<path transform="matrix(1,0,0,-1,1,145)" d="M 0 144 L 252 144 L 252 0 L 0 0 Z " fill="#179aff" fill-rule="evenodd"/>
<path transform="matrix(1,0,0,-1,1,145)" d="M 120.0396 81.0105 L 130.3651 98.8951 C 130.5096 98.8934 130.6565 98.9113 130.8027 98.9504 C 131.6656 99.1814 132.1778 100.0687 131.9465 100.9318 C 131.7155 101.7947 130.8283 102.3069 129.9651 102.0759 C 129.102 101.8446 128.5897 100.9573 128.821 100.0942 C 128.8602 99.9482 128.9183 99.8118 128.9917 99.6877 L 126.5769 95.5049 L 123.5886 100.6809 C 123.5211 100.8009 123.4222 100.9046 123.2946 100.9786 C 122.9156 101.198 122.4306 101.0687 122.2112 100.69 L 108.6199 77.1491 C 108.4448 76.8458 108.4448 76.4986 108.6199 76.195 C 108.7951 75.8914 109.0962 75.7176 109.4465 75.7176 L 121.9076 75.7176 C 122.3467 75.7176 122.7025 76.0737 122.7025 76.5125 C 122.7025 76.9516 122.3467 77.3073 121.9079 77.3073 L 121.1397 77.3073 L 117.9017 77.3073 L 116.0572 77.3073 L 110.5424 77.3073 L 122.8972 98.7066 L 125.6547 93.9308 L 118.6563 81.8093 C 118.446 81.445 118.5715 80.9762 118.9358 80.7661 L 118.9964 80.731 C 119.3607 80.5207 119.8293 80.6462 120.0396 81.0105 Z M 131.7016 83.4412 L 142.0268 65.5569 C 141.9534 65.4324 141.8953 65.2966 141.8562 65.1506 C 141.6249 64.2875 142.1374 63.4003 143.0002 63.1689 C 143.8634 62.9376 144.7503 63.4499 144.9816 64.313 C 145.2127 65.1762 144.7007 66.0631 143.8376 66.2944 C 143.6913 66.3335 143.5445 66.3514 143.4002 66.35 L 140.9854 70.5325 L 146.9619 70.5325 C 147.0994 70.5311 147.2389 70.5648 147.3667 70.6382 C 147.7463 70.8568 147.8769 71.3415 147.6584 71.7211 L 134.0674 95.2617 C 133.8922 95.565 133.5915 95.7387 133.2408 95.7387 C 132.8905 95.7387 132.5894 95.5653 132.4142 95.2617 L 126.1837 84.4702 C 125.9643 84.0898 126.0944 83.6036 126.4748 83.3842 C 126.8549 83.1648 127.3408 83.2949 127.5602 83.6751 L 127.9446 84.3403 L 129.5634 87.1444 L 130.4855 88.742 L 133.2431 93.5175 L 145.5979 72.1185 L 140.0831 72.1185 L 133.0846 84.24 C 132.8743 84.6043 132.4057 84.7298 132.0415 84.5195 L 131.9808 84.4843 C 131.6166 84.2743 131.491 83.8054 131.7016 83.4412 Z M 128.0083 72.1298 L 107.3571 72.1301 C 107.2865 72.2557 107.1978 72.3739 107.0906 72.4808 C 106.4588 73.1126 105.4344 73.1126 104.8028 72.4808 C 104.171 71.8492 104.171 70.8248 104.8028 70.1929 C 105.4346 69.5614 106.4591 69.5614 107.0906 70.1929 C 107.1978 70.3001 107.2868 70.4183 107.3574 70.5441 L 112.1873 70.5441 L 109.1988 65.3681 C 109.1288 65.2499 109.0882 65.1121 109.0882 64.9647 C 109.0874 64.527 109.442 64.1713 109.8799 64.1707 L 137.0622 64.1707 C 137.4126 64.1707 137.7136 64.3445 137.8888 64.6481 C 138.064 64.9514 138.064 65.2989 137.8888 65.6025 L 131.6582 76.394 C 131.4388 76.7741 130.9527 76.9042 130.5723 76.6848 C 130.1924 76.4654 130.062 75.9793 130.2814 75.5991 L 130.6655 74.9341 L 132.2844 72.1298 L 133.2068 70.5325 L 135.9641 65.7567 L 111.2542 65.7567 L 114.0117 70.5325 L 128.0083 70.5325 C 128.429 70.5325 128.772 70.8755 128.772 71.2964 L 128.772 71.3662 C 128.772 71.7868 128.429 72.1298 128.0083 72.1298 " fill="#ffffff" fill-rule="evenodd"/>
<path transform="matrix(1,0,0,-1,1,145)" d="M 77.8683 43.829 L 71.261 43.829 L 70.2802 41.9953 C 70.23 41.902 70.1521 41.8686 70.0503 41.8686 L 68.0712 41.8686 L 72.6919 50.3357 C 72.8433 50.6126 73.0672 50.9618 73.3351 51.135 C 73.5525 51.2756 73.7972 51.3329 74.0543 51.3329 L 74.8687 51.3329 C 75.1569 51.3329 75.45 51.2827 75.7012 51.133 C 75.9838 50.9647 76.2126 50.6194 76.3688 50.3351 L 81.0317 41.8686 L 79.1073 41.8686 C 79.0098 41.8686 78.9256 41.8912 78.8837 41.9837 Z M 88.8633 51.3329 C 89.032 51.3329 89.2035 51.3244 89.3693 51.2932 C 89.4943 51.2697 89.6128 51.2252 89.7171 51.1512 C 89.8262 51.0738 89.915 50.9717 89.9881 50.8603 C 90.093 50.6999 90.1746 50.5219 90.2477 50.347 L 93.1204 43.7182 C 93.174 43.5977 93.2737 43.5325 93.4055 43.5325 L 93.5714 43.5325 C 93.7018 43.5325 93.8024 43.5966 93.8551 43.7151 L 96.7269 50.3419 C 96.8012 50.5199 96.8831 50.6988 96.9885 50.8603 C 97.0617 50.9715 97.1507 51.0738 97.2595 51.1512 C 97.3621 51.224 97.4775 51.2697 97.6008 51.2932 C 97.7641 51.3247 97.9333 51.3329 98.0994 51.3329 L 99.5766 51.3329 C 99.8649 51.3329 100.275 51.294 100.4635 51.0477 C 100.662 50.7889 100.6917 50.3147 100.6917 49.9969 L 100.6917 42.0724 C 100.6917 42.0279 100.6886 41.9828 100.6648 41.9434 L 100.6492 41.9176 L 100.624 41.9012 C 100.5803 41.8723 100.5248 41.8686 100.474 41.8686 L 99.066 41.8686 C 99.0198 41.8686 98.9762 41.8697 98.9345 41.8946 L 98.9048 41.9125 L 98.8872 41.9426 C 98.8637 41.9834 98.8622 42.027 98.8622 42.0724 L 98.8622 49.2789 C 98.8622 49.4121 98.7931 49.517 98.6519 49.517 L 98.5275 49.517 C 98.403 49.517 98.3013 49.4654 98.2525 49.3376 L 95.4683 43.1626 C 95.3731 42.9514 95.2679 42.7414 95.1384 42.5494 C 95.0386 42.4018 94.9221 42.2631 94.7846 42.1495 C 94.6613 42.0471 94.5207 41.976 94.3665 41.934 C 94.1808 41.8839 93.9838 41.8686 93.7922 41.8686 L 93.1292 41.8686 C 92.9378 41.8686 92.7403 41.8839 92.5551 41.934 C 92.4004 41.976 92.2603 42.0471 92.137 42.1495 C 91.9996 42.2631 91.8831 42.4018 91.7833 42.5494 C 91.6537 42.7414 91.5483 42.9514 91.4533 43.1626 L 88.6629 49.3526 C 88.6195 49.4691 88.5135 49.517 88.3939 49.517 L 88.2697 49.517 C 88.1283 49.517 88.0591 49.4121 88.0591 49.2789 L 88.0591 42.0724 C 88.0591 42.027 88.058 41.9834 88.0342 41.9426 L 88.0169 41.9125 L 87.9868 41.8946 C 87.9454 41.8697 87.9018 41.8686 87.8556 41.8686 L 86.4473 41.8686 C 86.3966 41.8686 86.341 41.8723 86.2974 41.9012 L 86.2724 41.9176 L 86.2566 41.9434 C 86.2328 41.9828 86.2299 42.0279 86.2299 42.0724 L 86.2299 49.9969 C 86.2299 50.3147 86.2597 50.7889 86.4578 51.0477 C 86.6475 51.2949 87.069 51.3329 87.3587 51.3329 Z M 116.4617 46.7325 L 116.6 46.6526 C 117.2458 46.2784 117.5029 45.6857 117.5029 44.9578 L 117.5029 44.157 C 117.5029 43.8321 117.4703 43.5033 117.3824 43.1901 C 117.3078 42.9248 117.184 42.6824 116.9974 42.478 C 116.8041 42.2657 116.5547 42.1231 116.286 42.0284 C 115.9311 41.9031 115.5334 41.8686 115.1592 41.8686 L 106.9586 41.8686 C 106.7377 41.8686 106.6442 41.9621 106.6442 42.1829 L 106.6442 51.0185 C 106.6442 51.2391 106.7377 51.3329 106.9586 51.3329 L 114.9109 51.3329 C 115.5455 51.3329 116.382 51.2493 116.8648 50.7943 C 117.3127 50.3719 117.434 49.7455 117.434 49.1547 L 117.434 48.492 C 117.434 47.7921 117.1854 47.2187 116.5944 46.8215 Z M 124.9707 51.3329 C 125.0181 51.3329 125.0626 51.3315 125.1045 51.3051 L 125.1315 51.2884 L 125.1476 51.2612 C 125.1729 51.2198 125.1746 51.1753 125.1746 51.1288 L 125.1746 42.0724 C 125.1746 42.027 125.1731 41.9834 125.1496 41.9426 L 125.132 41.9125 L 125.1023 41.8946 C 125.0606 41.8697 125.0169 41.8686 124.9707 41.8686 L 123.4797 41.8686 C 123.429 41.8686 123.3734 41.8723 123.3298 41.9012 L 123.3048 41.9176 L 123.2889 41.9434 C 123.2651 41.9828 123.2623 42.0279 123.2623 42.0724 L 123.2623 51.1288 C 123.2623 51.1739 123.2651 51.2192 123.2898 51.2586 L 123.3048 51.2833 L 123.3286 51.2994 C 123.3723 51.3292 123.4284 51.3329 123.4797 51.3329 Z M 140.1707 43.829 L 133.5631 43.829 L 132.5823 41.9953 C 132.5324 41.902 132.4548 41.8686 132.3527 41.8686 L 130.3736 41.8686 L 134.994 50.3357 C 135.1454 50.6126 135.3696 50.9618 135.6375 51.135 C 135.8549 51.2756 136.0996 51.3329 136.3567 51.3329 L 137.1708 51.3329 C 137.4593 51.3329 137.7524 51.2827 138.0036 51.133 C 138.2859 50.9647 138.5147 50.6194 138.6711 50.3351 L 143.3344 41.8686 L 141.4094 41.8686 C 141.3119 41.8686 141.228 41.8912 141.1858 41.9837 Z M 157.5465 43.8202 C 157.6049 43.7275 157.6981 43.6844 157.8064 43.6844 L 157.9306 43.6844 C 158.072 43.6844 158.1409 43.789 158.1409 43.9226 L 158.1409 51.1288 C 158.1409 51.1753 158.1426 51.2198 158.1678 51.2612 L 158.1843 51.2884 L 158.2109 51.3051 C 158.2532 51.3315 158.2977 51.3329 158.3447 51.3329 L 159.7944 51.3329 C 159.8411 51.3329 159.8854 51.3317 159.9276 51.306 L 159.9548 51.2887 L 159.9715 51.2612 C 159.9968 51.2198 159.9985 51.1753 159.9985 51.1288 L 159.9985 43.2043 C 159.9985 42.8831 159.9656 42.3729 159.7243 42.137 C 159.5015 41.919 159.1549 41.8686 158.8558 41.8686 L 157.6681 41.8686 C 157.4955 41.8686 157.3211 41.8731 157.1496 41.8952 C 157.0292 41.9108 156.9107 41.9417 156.8018 41.9961 C 156.6901 42.052 156.5912 42.1311 156.5033 42.2189 C 156.3729 42.349 156.2593 42.4959 156.1473 42.6421 L 150.9999 49.377 C 150.9313 49.4578 150.8474 49.517 150.7377 49.517 L 150.6135 49.517 C 150.4721 49.517 150.4032 49.4121 150.4032 49.2789 L 150.4032 42.0724 C 150.4032 42.027 150.4018 41.9834 150.3782 41.9426 L 150.3607 41.9125 L 150.3309 41.8946 C 150.2892 41.8697 150.2456 41.8686 150.1994 41.8686 L 148.7497 41.8686 C 148.6987 41.8686 148.6434 41.8723 148.5998 41.9012 L 148.5746 41.9176 L 148.559 41.9434 C 148.5351 41.9828 148.532 42.0279 148.532 42.0724 L 148.532 49.9969 C 148.532 50.3181 148.5649 50.8289 148.8059 51.0642 C 149.0287 51.2824 149.3756 51.3329 149.6747 51.3329 L 150.8899 51.3329 C 151.0696 51.3329 151.2507 51.3283 151.429 51.3062 C 151.5512 51.2909 151.6723 51.2586 151.7808 51.1999 C 151.8905 51.1404 151.9877 51.0602 152.0736 50.9703 C 152.1961 50.8422 152.3058 50.7016 152.4095 50.561 Z M 167.673 51.3329 C 167.72 51.3329 167.764 51.3317 167.8062 51.306 L 167.8334 51.2887 L 167.8501 51.2612 C 167.8754 51.2198 167.8771 51.1753 167.8771 51.1288 L 167.8771 42.0724 C 167.8771 42.027 167.8757 41.9834 167.8521 41.9426 L 167.8343 41.9122 L 167.8039 41.8941 C 167.7626 41.8697 167.7192 41.8686 167.673 41.8686 L 166.182 41.8686 C 166.1304 41.8686 166.074 41.8723 166.03 41.9026 L 166.0068 41.9187 L 165.992 41.9428 C 165.9674 41.9822 165.9645 42.0276 165.9645 42.0724 L 165.9645 51.1288 C 165.9645 51.1739 165.9674 51.2192 165.992 51.2586 L 166.0071 51.2833 L 166.0309 51.2994 C 166.0745 51.3289 166.1306 51.3329 166.182 51.3329 Z M 183.725 51.3329 C 183.7721 51.3329 183.8169 51.3315 183.8588 51.3051 L 183.8846 51.2887 L 183.901 51.2629 C 183.9274 51.2209 183.9288 51.1761 183.9288 51.1288 L 183.9288 49.7761 C 183.9288 49.7248 183.9251 49.6689 183.8954 49.625 L 183.8792 49.6012 L 183.8546 49.5859 C 183.8151 49.5615 183.7698 49.5584 183.725 49.5584 L 177.5818 49.5584 C 177.279 49.5584 176.9604 49.5405 176.6665 49.4654 C 176.4386 49.4073 176.2251 49.305 176.0598 49.1343 C 175.8949 48.9637 175.7954 48.7449 175.7381 48.5164 C 175.6627 48.2153 175.6454 47.8902 175.6454 47.5809 L 175.6454 45.6205 C 175.6454 45.3087 175.6638 44.9821 175.7381 44.6786 C 175.7948 44.4478 175.8932 44.2256 176.0598 44.0532 C 176.2251 43.8826 176.4386 43.7803 176.6665 43.7219 C 176.9604 43.6467 177.279 43.6292 177.5818 43.6292 L 183.725 43.6292 C 183.7709 43.6292 183.8154 43.6277 183.8565 43.6031 L 183.8854 43.5855 L 183.903 43.5569 C 183.9277 43.5152 183.9288 43.4716 183.9288 43.4254 L 183.9288 42.0724 C 183.9288 42.0262 183.9277 41.9825 183.903 41.9409 L 183.8854 41.9122 L 183.8565 41.8946 C 183.8149 41.8697 183.7712 41.8686 183.725 41.8686 L 177.4987 41.8686 C 176.9153 41.8686 176.309 41.9091 175.7435 42.0582 C 175.3177 42.1707 174.9152 42.359 174.5921 42.6631 C 174.2751 42.961 174.0694 43.3383 173.9426 43.7513 C 173.7797 44.282 173.7332 44.8605 173.7332 45.4136 L 173.7332 47.7879 C 173.7332 48.3378 173.7791 48.9152 173.9426 49.4427 C 174.0702 49.8538 174.2763 50.2282 174.5921 50.5247 C 174.9155 50.8292 175.3189 51.0202 175.7441 51.1364 C 176.3082 51.2906 176.9156 51.3329 177.4987 51.3329 Z M 72.0235 45.2307 L 77.1072 45.2307 L 74.8338 49.4206 C 74.7811 49.5128 74.7011 49.572 74.5926 49.572 L 74.5095 49.572 C 74.4038 49.572 74.3227 49.5156 74.2731 49.4286 Z M 108.557 46.0103 L 108.557 43.8534 C 108.557 43.6785 108.6613 43.5742 108.8362 43.5742 L 114.4964 43.5742 C 114.7759 43.5742 115.1277 43.6096 115.3485 43.7981 C 115.5583 43.9773 115.6181 44.2517 115.6181 44.5161 L 115.6181 45.0405 C 115.6181 45.3172 115.5424 45.5791 115.3278 45.7651 C 115.0801 45.9797 114.6314 46.0103 114.3173 46.0103 Z M 108.557 47.3153 L 114.3173 47.3153 C 114.6229 47.3153 115.0756 47.342 115.3199 47.5455 C 115.5285 47.7193 115.6042 47.9656 115.6042 48.2301 L 115.6042 48.6992 C 115.6042 48.9645 115.5385 49.2284 115.3261 49.4042 C 115.1028 49.5893 114.7629 49.6276 114.4828 49.6276 L 108.8362 49.6276 C 108.6613 49.6276 108.557 49.523 108.557 49.3481 Z M 134.3256 45.2307 L 139.4096 45.2307 L 137.1359 49.4206 C 137.0832 49.5128 137.0032 49.572 136.895 49.572 L 136.8122 49.572 C 136.7062 49.572 136.6251 49.5159 136.5752 49.4286 Z " fill="#ffffff" fill-rule="evenodd"/>
</g>
</g>
</svg>
